<?xml version="1.0" encoding="UTF-8"?><svg xmlns="http://www.w3.org/2000/svg" viewBox="0 0 48.48 55.53"><defs><style>.d{fill:#00675b;}</style></defs><g id="a"/><g id="b"><g id="c"><g><path class="d" d="M48.46,24.69c-.18-4.71-1.44-9.21-3.66-13.21-.12-.22-.24-.43-.36-.64-.66-1.12-1.39-2.2-2.2-3.24-.29-.38-.6-.75-.92-1.12-.73-.85-1.52-1.67-2.36-2.45-.81-.75-1.66-1.46-2.54-2.11C30.63-1.38,23.1-.4,18.38,4.69c-5.15,5.56-5.16,14.08-.25,19.65h0c.33,.37,.67,.73,1.04,1.07,.37,.34,.75,.66,1.15,.96h0c.19,.21,.37,.42,.54,.63,.45,.56,.86,1.14,1.23,1.75,.07,.11,.13,.22,.19,.33,3.38,5.9,2.72,13.55-2.14,18.8-3.62,3.91-8.74,5.6-13.65,5,4.16,1.89,8.72,2.8,13.42,2.62,7.93-.3,15.27-3.68,20.66-9.5,5.39-5.82,8.2-13.4,7.89-21.33Zm-12.09,11.99c-1.68,1.81-4.51,1.92-6.33,.24-1.81-1.68-1.92-4.51-.24-6.33,1.68-1.81,4.51-1.92,6.33-.24,1.81,1.68,1.92,4.51,.24,6.33Z"/><path class="d" d="M7.73,24.77v-.82l.37-.2-.37-.37v-3.21l.28-.34-.28-.43-.85-.82-.2-1.19-.2,1.19-.85,.82-.28,.43,.28,.34v3.21l-.37,.37,.37,.2v.82L0,31.64v5.96l.06,.54H5.24v-4.52h2.87v4.52h5.19l.06-.54v-5.96l-5.63-6.87Zm-.43-1.51h-1.25v-1.96c0-.35,.28-.74,.62-.74s.62,.4,.62,.74v1.96Z"/><circle class="d" cx="6.68" cy="17.65" r=".24"/></g></g></g></svg>