<?xml version="1.0" encoding="UTF-8"?><svg xmlns="http://www.w3.org/2000/svg" viewBox="0 0 166.38 90.17"><defs><style>.d{fill:#fff;}</style></defs><g id="a"/><g id="b"><g id="c"><g><g><path class="d" d="M110.54,24.69c-.18-4.71-1.44-9.21-3.66-13.21-.12-.22-.24-.43-.36-.64-.66-1.12-1.39-2.2-2.2-3.24-.29-.38-.6-.75-.92-1.12-.73-.85-1.52-1.67-2.36-2.45-.81-.75-1.66-1.46-2.54-2.11-5.79-3.3-13.31-2.32-18.03,2.78-5.15,5.56-5.16,14.08-.25,19.65h0c.33,.37,.67,.73,1.04,1.07,.37,.34,.75,.66,1.15,.96h0c.19,.21,.37,.42,.54,.63,.45,.56,.86,1.14,1.23,1.75,.07,.11,.13,.22,.19,.33,3.38,5.9,2.72,13.55-2.14,18.8-3.62,3.91-8.74,5.6-13.65,5,4.16,1.89,8.72,2.8,13.42,2.62,7.93-.3,15.27-3.68,20.66-9.5,5.39-5.82,8.2-13.4,7.89-21.33Zm-12.09,11.99c-1.68,1.81-4.51,1.92-6.33,.24s-1.92-4.51-.24-6.33c1.68-1.81,4.51-1.92,6.33-.24,1.81,1.68,1.92,4.51,.24,6.33Z"/><path class="d" d="M69.81,24.77v-.82l.37-.2-.37-.37v-3.21l.28-.34-.28-.43-.85-.82-.2-1.19-.2,1.19-.85,.82-.28,.43,.28,.34v3.21l-.37,.37,.37,.2v.82l-5.63,6.87v5.96l.06,.54h5.19v-4.52h2.87v4.52h5.19l.06-.54v-5.96l-5.63-6.87Zm-.43-1.51h-1.25v-1.96c0-.35,.28-.74,.62-.74s.62,.4,.62,.74v1.96Z"/><circle class="d" cx="68.76" cy="17.65" r=".24"/></g><g><path class="d" d="M20.6,82.47c-.09,.17-.19,.28-.31,.31-.12,.03-.24,.04-.37,.02-1.73-.24-3.46-.31-5.2-.23-1.74,.09-3.49,.28-5.26,.58-.3,.04-.6,.09-.89,.15-.29,.05-.59,.1-.89,.15-1.17,.19-2.3,.46-3.42,.81-1.11,.34-2.17,.9-3.16,1.65-.09,.06-.18,.11-.28,.15-.1,.03-.2,.07-.31,.11-.13,.02-.25,0-.36-.06-.11-.06-.16-.16-.16-.29,.02-.24,.05-.46,.08-.68s.09-.43,.18-.65c.17-.35,.36-.69,.55-1.02,.19-.33,.38-.67,.55-1.02,1.21-2.16,2.5-4.26,3.87-6.3,1.37-2.04,2.74-4.1,4.1-6.17,.22-.3,.42-.6,.6-.91,.18-.3,.39-.63,.63-.97-.24-.17-.5-.34-.78-.5s-.52-.35-.73-.55-.37-.46-.49-.76c-.12-.3-.13-.69-.05-1.17,.17,.24,.31,.44,.42,.6,.11,.16,.23,.31,.36,.44,.11,.11,.23,.21,.37,.29,.14,.09,.3,.17,.47,.26,.17,.06,.35,.12,.53,.16,.18,.04,.39,.1,.63,.16,.22-.28,.42-.54,.62-.79s.38-.49,.55-.73c.32-.43,.74-.95,1.25-1.55,.51-.6,1.04-1.2,1.6-1.78,.56-.58,1.13-1.11,1.72-1.57,.58-.46,1.12-.78,1.62-.96,.69-.28,1.28-.26,1.76,.06,.49,.32,.71,.86,.66,1.62-.02,1.08-.43,2.05-1.23,2.91-1.19,1.3-2.63,2.29-4.34,2.98-.15,.06-.3,.12-.44,.18-.14,.05-.29,.1-.44,.15-.24,.04-.42,.13-.55,.27-.13,.14-.25,.3-.36,.47-.78,1.19-1.55,2.37-2.32,3.55-.77,1.18-1.53,2.35-2.28,3.51-.65,.97-1.28,1.93-1.89,2.88-.62,.95-1.24,1.91-1.86,2.88l-.19,.39c.15,.17,.31,.23,.49,.18,.17-.05,.33-.1,.49-.15,1.4-.39,2.79-.64,4.18-.75,1.38-.11,2.79-.11,4.21,0,.86,.04,1.7,.15,2.51,.32s1.6,.38,2.38,.62c.24,.09,.47,.17,.7,.24,.23,.08,.38,.24,.47,.5Zm-5.5-16.39c.84-.24,1.67-.65,2.49-1.25s1.48-1.25,1.98-1.96c.17-.24,.29-.52,.36-.84,.24-.63,.17-1.01-.19-1.17-.24-.11-.44-.11-.62,0-.17,.11-.32,.24-.45,.39-.65,.65-1.26,1.4-1.85,2.27-.58,.86-1.16,1.72-1.72,2.56Z"/><path class="d" d="M24.48,78.91c-.17,.3-.3,.64-.39,1-.09,.37-.15,.73-.19,1.1-.04,.5,.07,.84,.32,1.04s.64,.21,1.13,.03c.69-.26,1.45-.66,2.28-1.21,.83-.55,1.67-1.17,2.51-1.85,.84-.68,1.66-1.39,2.45-2.14s1.47-1.43,2.06-2.06c.09-.04,.19-.09,.32-.13,.09-.04,.15-.03,.19,.03,.13,.09,.17,.17,.13,.26-.02,.11-.05,.21-.1,.29l-.13,.26c-.91,1.1-1.81,2.13-2.72,3.09-.91,.96-1.92,1.87-3.04,2.74-.89,.67-1.83,1.3-2.85,1.88-1.14,.71-2.31,.83-3.5,.36-.76-.32-1.26-.88-1.52-1.68-.15-.56-.24-1.13-.26-1.7-.02-.57,.05-1.16,.23-1.77,.84-3.09,2.6-5.59,5.28-7.51,.43-.3,.87-.57,1.31-.79,.44-.23,.92-.39,1.44-.5,.63-.13,1.16-.04,1.6,.28,.44,.31,.71,.77,.79,1.38,.09,.73-.08,1.42-.49,2.07-.63,.99-1.34,1.88-2.14,2.67-.8,.79-1.73,1.45-2.79,1.99-.3,.15-.61,.29-.92,.42-.31,.13-.65,.28-1.02,.45Zm.84-1.55c.75-.41,1.43-.86,2.02-1.36,.59-.5,1.16-1.02,1.7-1.59,.19-.17,.37-.37,.52-.58,.15-.22,.29-.44,.42-.68,.17-.24,.31-.53,.42-.87,.02-.09,.03-.18,.02-.29-.01-.11-.05-.18-.11-.23-.04-.04-.12-.06-.24-.05-.12,.01-.21,.04-.27,.08-.17,.11-.35,.23-.54,.36s-.36,.27-.53,.42c-.69,.63-1.31,1.3-1.85,2.02-.54,.72-1.04,1.48-1.49,2.28-.04,.04-.06,.1-.05,.18s0,.18-.02,.31Z"/><path class="d" d="M45.46,73.82c-.15,.39-.35,.77-.6,1.15-.25,.38-.58,.78-.99,1.21-.41,.43-.93,.92-1.55,1.47-.63,.55-1.39,1.19-2.3,1.93-.02,.15-.04,.3-.05,.44-.01,.14-.02,.3-.02,.47,0,.76-.13,1.44-.39,2.06s-.6,1.15-1.02,1.6c-.42,.45-.91,.84-1.46,1.17s-1.12,.57-1.7,.75c-.71,.19-1.41,.28-2.1,.26-.73-.06-1.32-.38-1.75-.94-.28-.35-.4-.71-.37-1.1s.2-.77,.5-1.13c.24-.28,.5-.52,.78-.71s.57-.38,.87-.55c.5-.24,.99-.48,1.47-.73,.49-.25,.98-.49,1.47-.73,.11-.04,.21-.1,.31-.16,.1-.06,.2-.12,.31-.16,.06-.22,.05-.39-.03-.52-.09-.13-.17-.25-.26-.36-.3-.39-.61-.77-.92-1.15-.31-.38-.62-.75-.92-1.12-.15-.19-.31-.39-.47-.58s-.3-.4-.4-.62c-.3-.63-.42-1.25-.36-1.88,.06-.63,.34-1.25,.84-1.88,.52-.63,1.08-1.17,1.7-1.64s1.33-.81,2.15-1.05c.65-.17,1.26-.23,1.85-.16,.73,.09,1.24,.28,1.51,.58,.27,.3,.46,.79,.57,1.46,.07,.37,.04,.74-.06,1.12-.11,.38-.27,.74-.49,1.08-.22,.35-.48,.65-.78,.92-.3,.27-.63,.48-.97,.63-.52,.22-.97,.23-1.36,.03s-.62-.54-.68-1.04c-.02-.11-.02-.22,.02-.34,.03-.12,.07-.23,.11-.34,.13-.19,.28-.31,.45-.36,.11-.04,.18-.02,.23,.06,.04,.09,.08,.18,.1,.29,.06,.24,.16,.37,.29,.39,.13,.02,.28-.06,.45-.26,.17-.24,.33-.47,.47-.71,.14-.24,.3-.47,.47-.71,.06-.11,.11-.23,.13-.37,.02-.14-.02-.26-.13-.37-.15-.11-.3-.21-.44-.29-.14-.09-.32-.08-.53,.03-.19,.09-.4,.17-.62,.26-.22,.09-.41,.18-.58,.29-.97,.54-1.76,1.33-2.36,2.36,.09,.13,.16,.26,.21,.39s.12,.26,.21,.39c.13,.17,.26,.33,.4,.47,.14,.14,.29,.29,.44,.44,.45,.39,.88,.8,1.28,1.25,.4,.44,.76,.92,1.08,1.44,.02,.02,.11,.08,.26,.16,.26-.11,.51-.26,.74-.45s.49-.38,.75-.55c.24-.17,.47-.35,.71-.53,.24-.18,.47-.37,.71-.57s.46-.39,.66-.58c.21-.19,.42-.39,.63-.58,.24-.19,.46-.42,.66-.66,.21-.25,.49-.47,.86-.66Zm-12.82,10.33c.32,.26,.65,.34,.97,.24,.32-.1,.64-.2,.94-.31,.41-.15,.78-.36,1.1-.63,.32-.27,.63-.58,.91-.92,.11-.13,.21-.28,.29-.44,.09-.16,.12-.34,.1-.53-.22,.06-.49,.18-.83,.34-.33,.16-.67,.33-1.02,.5-.35,.17-.67,.35-.99,.53-.31,.18-.56,.34-.73,.47-.13,.11-.24,.22-.34,.34-.1,.12-.23,.25-.4,.4Z"/><path class="d" d="M58.45,70.62c.11-.02,.21-.03,.31-.03s.17-.03,.21-.1c.17-.24,.34-.48,.5-.73s.33-.5,.5-.76c.56-.88,1.17-1.71,1.81-2.48s1.34-1.5,2.07-2.19c.17-.13,.34-.26,.5-.4,.16-.14,.33-.26,.5-.37,.37-.19,.7-.23,1-.1,.3,.13,.52,.41,.65,.84,.13,.48,.21,.95,.23,1.42,.02,.48-.03,.95-.16,1.42-.19,.69-.39,1.39-.58,2.09-.19,.7-.4,1.4-.62,2.09,0,.09-.03,.22-.1,.39-.06,.17-.13,.36-.19,.57-.06,.21-.13,.41-.21,.62-.08,.21-.12,.38-.15,.53,.56-.78,1.07-1.47,1.54-2.09,.46-.62,1-1.27,1.6-1.96,.24-.35,.53-.64,.87-.89,.35-.25,.7-.46,1.07-.63,1.21-.56,2.03-.15,2.46,1.23,.15,.43,.22,.87,.19,1.33-.02,.45-.09,.9-.19,1.33-.15,.56-.31,1.12-.49,1.67-.17,.55-.34,1.11-.52,1.67-.3,.82-.6,1.63-.89,2.43-.29,.8-.58,1.61-.86,2.43-.24,.73-.47,1.53-.71,2.4-.24,.86-.42,1.71-.55,2.53-.13,.82-.18,1.56-.16,2.22,.02,.66,.17,1.13,.44,1.41,.27,.28,.69,.32,1.26,.13s1.33-.73,2.28-1.62c0,.17,.02,.32,.06,.44s.04,.22,0,.31c-.37,.56-.8,1.01-1.29,1.34-.5,.33-1.03,.63-1.59,.89-.86,.37-1.66,.19-2.4-.52-.67-.65-1.1-1.45-1.29-2.4-.13-.5-.19-.99-.18-1.49,.01-.5,.04-1,.08-1.52,.15-1.42,.42-2.9,.81-4.44,.39-1.53,.84-2.95,1.36-4.24,.34-.97,.74-1.9,1.18-2.78s.74-1.83,.89-2.85c-.67,.43-1.28,1-1.83,1.7-.55,.7-1.07,1.47-1.57,2.3-.5,.83-.97,1.67-1.41,2.53-.44,.85-.88,1.64-1.31,2.35-.28,.45-.56,.89-.84,1.31-.28,.42-.57,.85-.88,1.28-.09,.13-.18,.25-.29,.37-.11,.12-.22,.23-.32,.34-.32,.28-.63,.38-.92,.29-.29-.09-.49-.35-.6-.78-.11-.43-.18-.87-.21-1.33-.03-.45-.02-.91,.05-1.36,.15-.63,.29-1.25,.41-1.88,.12-.63,.29-1.24,.5-1.85,.52-1.51,1.07-2.97,1.65-4.37,.58-1.4,1.12-2.87,1.62-4.4-.71,.76-1.39,1.6-2.04,2.54-.65,.94-1.26,1.91-1.85,2.91-.58,1-1.13,2.01-1.65,3.01-.52,1-1,1.94-1.46,2.8-.43,.86-.87,1.72-1.33,2.56-.45,.84-.91,1.68-1.36,2.53-.11,.26-.25,.5-.42,.71-.17,.22-.41,.31-.71,.29-.32-.04-.54-.21-.66-.49-.12-.28-.22-.56-.31-.84-.04-.15-.06-.31-.06-.47s-.01-.33-.03-.5c0-.69,.05-1.37,.16-2.02,.11-.66,.25-1.32,.42-1.99,.5-1.68,1.03-3.34,1.6-4.97,.57-1.63,1.24-3.23,1.99-4.81,.34-.73,.68-1.46,1.02-2.19,.33-.72,.69-1.43,1.05-2.12,.3-.56,.64-1.12,1.02-1.67,.38-.55,.75-1.07,1.12-1.57,.3-.43,.71-.77,1.23-1,.28-.15,.53-.13,.76,.06,.23,.19,.32,.48,.28,.84-.04,.54-.14,1.01-.29,1.42-.54,1.53-1.08,3.06-1.63,4.57-.55,1.51-1.17,2.98-1.86,4.4-.04,.13-.14,.25-.29,.36,0,.11,.02,.23,.07,.36-.02-.04-.03-.1-.03-.16s-.01-.13-.03-.19Z"/><path class="d" d="M80.6,78.58c-.19,.6-.43,1.18-.71,1.73-.28,.55-.58,1.1-.91,1.64-.54,.86-1.25,1.53-2.14,2.01-.54,.3-1.07,.43-1.6,.37-.53-.05-1.01-.28-1.44-.66-1.34-1.27-1.79-2.85-1.36-4.73,.58-2.55,1.94-4.65,4.08-6.31,.37-.3,.76-.56,1.18-.76,.42-.2,.85-.37,1.28-.5,.75-.24,1.52-.24,2.3,0,.76,.24,1.07,.78,.94,1.62-.06,.32-.17,.64-.32,.96s-.35,.6-.58,.86l-.78,.78c.04,.13,.09,.26,.13,.39s.09,.25,.13,.36c.04,.13,.08,.26,.11,.39s.07,.27,.11,.42c1.06-.04,2.06-.36,3-.94,.94-.58,1.84-1.36,2.7-2.33,.15,.13,.15,.27,0,.42-.95,1.47-1.94,2.52-2.96,3.16-1.03,.64-2.08,1.02-3.16,1.15Zm-4.96,4.11c.86-.39,1.56-.95,2.09-1.68s.88-1.61,1.05-2.62c-.11-.15-.23-.29-.37-.4-.14-.12-.24-.26-.31-.44-.07-.17-.1-.38-.1-.62s.04-.46,.13-.68c.09-.22,.21-.4,.39-.57,.17-.16,.39-.28,.65-.34,.19-.04,.35-.12,.47-.23,.12-.11,.23-.25,.34-.42,.11-.17,.21-.32,.31-.45,.1-.13,.2-.28,.31-.45,.06-.13,.13-.26,.19-.4,.06-.14,.13-.29,.19-.44-.26-.17-.54-.16-.84,.03-.76,.45-1.4,.99-1.94,1.62-.67,.76-1.23,1.56-1.67,2.41-.44,.85-.81,1.74-1.12,2.67-.11,.28-.17,.57-.19,.86s-.05,.59-.1,.89c0,.24,.03,.46,.08,.68,.05,.22,.2,.41,.44,.58Z"/><path class="d" d="M91.25,75.05c-.13,.11-.23,.19-.31,.26-.08,.06-.13,.13-.18,.19-.28,.35-.55,.68-.81,1-.26,.32-.51,.67-.75,1.04-.54,.86-1.12,1.68-1.73,2.45-.62,.77-1.26,1.53-1.93,2.28-.13,.13-.25,.25-.36,.36-.11,.11-.23,.22-.36,.32-.32,.26-.64,.36-.96,.29-.31-.06-.52-.28-.63-.65-.17-.45-.23-.91-.16-1.36,.06-.8,.19-1.59,.39-2.36,.52-1.88,1.32-3.67,2.4-5.38,.28-.43,.58-.83,.91-1.18,.32-.36,.68-.67,1.07-.96,.32-.24,.66-.4,1-.49,.28-.06,.5-.02,.66,.13,.16,.15,.23,.37,.21,.65-.04,.13-.09,.26-.13,.4-.04,.14-.1,.26-.16,.37-.3,.63-.63,1.24-.97,1.85-.52,.89-1,1.78-1.44,2.67-.44,.9-.87,1.81-1.28,2.74-.04,.13-.09,.28-.13,.45,.17,.04,.29,.01,.36-.1,.06-.11,.13-.21,.19-.29,.52-.69,1.04-1.39,1.55-2.09,.52-.7,1.06-1.4,1.62-2.09,.28-.37,.57-.72,.86-1.07,.29-.34,.59-.68,.89-1,.24-.24,.48-.45,.73-.65s.5-.4,.76-.62c.41-.3,.76-.39,1.05-.26,.29,.13,.49,.38,.6,.75,.11,.48,.14,.97,.1,1.49-.09,.63-.24,1.28-.45,1.98-.13,.45-.28,.91-.44,1.36-.16,.45-.33,.91-.5,1.36-.3,.93-.59,1.81-.87,2.66-.28,.84-.51,1.72-.68,2.62,.24-.06,.53-.3,.87-.7,.34-.4,.71-.9,1.1-1.49,.39-.59,.78-1.24,1.18-1.94,.4-.7,.77-1.39,1.12-2.07,.34-.68,.65-1.32,.92-1.93,.27-.6,.47-1.1,.6-1.49,.15-.17,.32-.19,.52-.06,.17,.09,.21,.25,.1,.49-.41,1.08-.85,2.14-1.31,3.19-.46,1.05-.95,2.02-1.46,2.93-.51,.91-1.03,1.71-1.55,2.41-.53,.7-1.05,1.25-1.57,1.64-.52,.39-1.02,.58-1.51,.58s-.94-.25-1.38-.74c-.15-.37-.23-.74-.23-1.13s.03-.79,.1-1.2c.07-.5,.17-.99,.32-1.49,.15-.5,.32-.99,.52-1.49l1.46-4.08s.03-.1,.03-.18,.01-.2,.03-.37Z"/><path class="d" d="M101.32,66.83c-.26-.04-.49-.07-.68-.08-.19-.01-.39-.04-.58-.08-.3-.09-.61-.17-.92-.24-.31-.08-.64-.17-.99-.28-.17-.06-.32-.16-.45-.28-.13-.12-.23-.28-.29-.47-.04-.17-.02-.32,.06-.45s.22-.19,.39-.19c.11,.02,.22,.04,.34,.05,.12,.01,.23,.04,.34,.08,.65,.11,1.29,.2,1.94,.28,.65,.08,1.31,.09,1.98,.05,.09-.11,.17-.21,.24-.31,.08-.1,.17-.2,.27-.31,.6-.86,1.26-1.67,1.96-2.41,.7-.75,1.42-1.47,2.15-2.19,.24-.24,.48-.44,.73-.62,.25-.17,.53-.31,.86-.42,.09-.04,.19-.06,.31-.05,.12,.01,.25,.02,.4,.02-.13,.43-.32,.79-.57,1.07-.25,.28-.46,.57-.63,.87-.22,.35-.44,.67-.68,.99-.24,.31-.46,.63-.68,.96-.19,.3-.39,.6-.6,.91-.21,.3-.39,.6-.57,.91,.15,.17,.28,.25,.37,.23,.1-.02,.2-.04,.31-.06,1.49-.26,2.97-.53,4.45-.83,1.48-.29,2.93-.67,4.36-1.15,.15-.06,.3-.1,.45-.1,.06,0,.16,.06,.29,.19,.02,.04,.03,.1,.03,.16s-.02,.12-.06,.16c-.09,.13-.23,.25-.42,.36-.26,.13-.52,.25-.79,.37-.27,.12-.53,.23-.79,.34-1.34,.5-2.68,.92-4.03,1.26-1.35,.35-2.71,.64-4.1,.87-.24,.04-.46,.08-.66,.11s-.42,.07-.63,.11c-.07,.11-.12,.2-.18,.28s-.1,.16-.15,.24c-.73,1.23-1.45,2.44-2.14,3.64-.69,1.2-1.32,2.43-1.88,3.71-.3,.6-.6,1.2-.91,1.78-.3,.58-.6,1.18-.91,1.78-.37,.71-.72,1.47-1.05,2.28-.33,.81-.63,1.61-.88,2.4-.25,.79-.44,1.54-.58,2.25s-.2,1.33-.18,1.85c.17,.3,.45,.35,.84,.15,.39-.21,.83-.58,1.33-1.13,.5-.55,1.04-1.25,1.63-2.09,.59-.84,1.2-1.75,1.81-2.72,.62-.97,1.23-1.99,1.83-3.04,.6-1.06,1.17-2.07,1.68-3.04,.06-.04,.14-.06,.23-.06s.16,.01,.23,.03c.02,.02,.06,.07,.11,.15,.05,.08,.07,.14,.05,.18-.56,1.14-1.13,2.3-1.7,3.46-.57,1.17-1.18,2.31-1.83,3.43-.65,1.12-1.36,2.2-2.12,3.22-.77,1.03-1.61,1.96-2.54,2.8-.41,.34-.86,.56-1.36,.65-.43,.11-.84,.08-1.21-.08-.38-.16-.68-.45-.92-.86-.17-.28-.29-.57-.36-.86-.07-.29-.12-.6-.16-.92,0-.89,.12-1.78,.36-2.69,.63-2.48,1.47-4.86,2.53-7.12,.73-1.49,1.48-2.95,2.25-4.37,.77-1.42,1.6-2.82,2.51-4.18,.11-.13,.19-.27,.26-.42,.06-.15,.16-.32,.29-.52Z"/><path class="d" d="M115.25,73.82c-.15,.39-.35,.77-.6,1.15-.25,.38-.58,.78-.99,1.21-.41,.43-.93,.92-1.55,1.47-.63,.55-1.39,1.19-2.3,1.93-.02,.15-.04,.3-.05,.44-.01,.14-.02,.3-.02,.47,0,.76-.13,1.44-.39,2.06s-.6,1.15-1.02,1.6c-.42,.45-.91,.84-1.46,1.17s-1.12,.57-1.7,.75c-.71,.19-1.41,.28-2.1,.26-.73-.06-1.32-.38-1.75-.94-.28-.35-.4-.71-.37-1.1s.2-.77,.5-1.13c.24-.28,.5-.52,.78-.71s.57-.38,.87-.55c.5-.24,.99-.48,1.47-.73,.49-.25,.98-.49,1.47-.73,.11-.04,.21-.1,.31-.16,.1-.06,.2-.12,.31-.16,.06-.22,.05-.39-.03-.52-.09-.13-.17-.25-.26-.36-.3-.39-.61-.77-.92-1.15-.31-.38-.62-.75-.92-1.12-.15-.19-.31-.39-.47-.58s-.3-.4-.4-.62c-.3-.63-.42-1.25-.36-1.88,.06-.63,.34-1.25,.84-1.88,.52-.63,1.08-1.17,1.7-1.64s1.33-.81,2.15-1.05c.65-.17,1.26-.23,1.85-.16,.73,.09,1.24,.28,1.51,.58,.27,.3,.46,.79,.57,1.46,.07,.37,.04,.74-.06,1.12-.11,.38-.27,.74-.49,1.08-.22,.35-.48,.65-.78,.92-.3,.27-.63,.48-.97,.63-.52,.22-.97,.23-1.36,.03s-.62-.54-.68-1.04c-.02-.11-.02-.22,.02-.34,.03-.12,.07-.23,.11-.34,.13-.19,.28-.31,.45-.36,.11-.04,.18-.02,.23,.06,.04,.09,.08,.18,.1,.29,.06,.24,.16,.37,.29,.39,.13,.02,.28-.06,.45-.26,.17-.24,.33-.47,.47-.71,.14-.24,.3-.47,.47-.71,.06-.11,.11-.23,.13-.37,.02-.14-.02-.26-.13-.37-.15-.11-.3-.21-.44-.29-.14-.09-.32-.08-.53,.03-.19,.09-.4,.17-.62,.26-.22,.09-.41,.18-.58,.29-.97,.54-1.76,1.33-2.36,2.36,.09,.13,.16,.26,.21,.39s.12,.26,.21,.39c.13,.17,.26,.33,.4,.47,.14,.14,.29,.29,.44,.44,.45,.39,.88,.8,1.28,1.25,.4,.44,.76,.92,1.08,1.44,.02,.02,.11,.08,.26,.16,.26-.11,.51-.26,.74-.45s.49-.38,.75-.55c.24-.17,.47-.35,.71-.53,.24-.18,.47-.37,.71-.57s.46-.39,.66-.58c.21-.19,.42-.39,.63-.58,.24-.19,.46-.42,.66-.66,.21-.25,.49-.47,.86-.66Zm-12.82,10.33c.32,.26,.65,.34,.97,.24,.32-.1,.64-.2,.94-.31,.41-.15,.78-.36,1.1-.63,.32-.27,.63-.58,.91-.92,.11-.13,.21-.28,.29-.44,.09-.16,.12-.34,.1-.53-.22,.06-.49,.18-.83,.34-.33,.16-.67,.33-1.02,.5-.35,.17-.67,.35-.99,.53-.31,.18-.56,.34-.73,.47-.13,.11-.24,.22-.34,.34-.1,.12-.23,.25-.4,.4Z"/><path class="d" d="M126.49,80.88c-.26,.22-.48,.4-.65,.55-.17,.15-.36,.29-.55,.42-.17,.13-.35,.26-.53,.39-.18,.13-.36,.25-.53,.36-.99,.47-1.71,.24-2.14-.71-.22-.52-.32-1.07-.32-1.65s.05-1.19,.16-1.81c.24-.99,.64-1.9,1.2-2.72,.5-.88,1.17-1.21,2.01-.97,.32,.11,.64,.23,.96,.36,.31,.13,.65,.27,1.02,.42,.17-.24,.36-.48,.57-.73,.21-.25,.41-.5,.6-.76,.84-1.04,1.67-2.07,2.49-3.09,.82-1.02,1.64-2.04,2.46-3.06,.76-.93,1.54-1.83,2.36-2.72,.82-.88,1.75-1.71,2.79-2.46-.73-.28-1.55-.54-2.46-.78-.91-.24-1.8-.32-2.69-.24-.89,.08-1.73,.36-2.54,.86-.81,.5-1.48,1.33-2.02,2.49-.11,.24-.22,.47-.34,.7-.12,.23-.23,.46-.34,.7-.22,.04-.36,.02-.44-.08-.08-.1-.11-.22-.11-.37-.02-.6,.1-1.22,.36-1.85,1.01-2.29,2.6-3.71,4.76-4.27,1.71-.45,3.37-.52,4.99-.19,.45,.09,.91,.18,1.36,.27s.9,.2,1.33,.31c.5,.11,1,.18,1.51,.23,.51,.04,1.04-.02,1.6-.19,.22-.06,.43-.09,.63-.06,.2,.02,.34,.15,.4,.39,.09,.28,.06,.53-.08,.76-.14,.23-.31,.43-.5,.6-.13,.15-.28,.29-.44,.42-.16,.13-.32,.25-.47,.36-.93,.6-1.8,1.28-2.62,2.04-.82,.76-1.62,1.55-2.4,2.4-1.62,1.68-3.17,3.44-4.65,5.26-1.48,1.82-2.93,3.69-4.36,5.59,.13,.41,.33,.84,.6,1.3,.27,.45,.57,.89,.91,1.31s.69,.79,1.05,1.1,.71,.53,1.04,.66c.88,.35,1.67,.37,2.36,.06,.69-.3,1.31-.75,1.85-1.34,.54-.59,1.03-1.25,1.47-1.96,.44-.71,.86-1.32,1.25-1.81,.15,.11,.22,.25,.21,.42-.01,.17-.04,.35-.08,.52-.39,1.45-.97,2.73-1.75,3.84-.78,1.11-1.81,1.99-3.11,2.64-1.06,.5-2.05,.72-2.96,.66-.92-.05-1.75-.44-2.51-1.15-.39-.37-.74-.75-1.05-1.15-.31-.4-.64-.8-.99-1.21-.11-.13-.21-.27-.31-.42-.1-.15-.21-.35-.34-.58Zm-2.33-4.86c-.3,.28-.52,.58-.65,.91-.13,.32-.19,.65-.19,.97-.04,.37-.06,.73-.06,1.08s.14,.67,.42,.96c.3-.3,.57-.62,.81-.96,.24-.33,.47-.71,.71-1.12-.17-.3-.31-.63-.42-.97-.11-.35-.31-.64-.62-.87Z"/><path class="d" d="M143.84,78.91c-.17,.3-.3,.64-.39,1-.09,.37-.15,.73-.19,1.1-.04,.5,.07,.84,.32,1.04s.64,.21,1.13,.03c.69-.26,1.45-.66,2.28-1.21,.83-.55,1.67-1.17,2.51-1.85,.84-.68,1.66-1.39,2.45-2.14s1.47-1.43,2.06-2.06c.09-.04,.19-.09,.32-.13,.09-.04,.15-.03,.19,.03,.13,.09,.17,.17,.13,.26-.02,.11-.05,.21-.1,.29l-.13,.26c-.91,1.1-1.81,2.13-2.72,3.09-.91,.96-1.92,1.87-3.04,2.74-.89,.67-1.83,1.3-2.85,1.88-1.14,.71-2.31,.83-3.5,.36-.76-.32-1.26-.88-1.52-1.68-.15-.56-.24-1.13-.26-1.7-.02-.57,.05-1.16,.23-1.77,.84-3.09,2.6-5.59,5.28-7.51,.43-.3,.87-.57,1.31-.79,.44-.23,.92-.39,1.44-.5,.63-.13,1.16-.04,1.6,.28,.44,.31,.71,.77,.79,1.38,.09,.73-.08,1.42-.49,2.07-.63,.99-1.34,1.88-2.14,2.67-.8,.79-1.73,1.45-2.79,1.99-.3,.15-.61,.29-.92,.42-.31,.13-.65,.28-1.02,.45Zm.84-1.55c.75-.41,1.43-.86,2.02-1.36,.59-.5,1.16-1.02,1.7-1.59,.19-.17,.37-.37,.52-.58,.15-.22,.29-.44,.42-.68,.17-.24,.31-.53,.42-.87,.02-.09,.03-.18,.02-.29-.01-.11-.05-.18-.11-.23-.04-.04-.12-.06-.24-.05-.12,.01-.21,.04-.27,.08-.17,.11-.35,.23-.54,.36s-.36,.27-.53,.42c-.69,.63-1.31,1.3-1.85,2.02-.54,.72-1.04,1.48-1.49,2.28-.04,.04-.06,.1-.05,.18s0,.18-.02,.31Z"/><path class="d" d="M159.77,75.05c-.13,.11-.23,.19-.31,.26-.08,.06-.13,.13-.18,.19-.28,.35-.55,.68-.81,1-.26,.32-.51,.67-.75,1.04-.54,.86-1.12,1.68-1.73,2.45-.62,.77-1.26,1.53-1.93,2.28-.13,.13-.25,.25-.36,.36-.11,.11-.23,.22-.36,.32-.32,.26-.64,.36-.96,.29-.31-.06-.52-.28-.63-.65-.17-.45-.23-.91-.16-1.36,.06-.8,.19-1.59,.39-2.36,.52-1.88,1.32-3.67,2.4-5.38,.28-.43,.58-.83,.91-1.18,.32-.36,.68-.67,1.07-.96,.32-.24,.66-.4,1-.49,.28-.06,.5-.02,.66,.13,.16,.15,.23,.37,.21,.65-.04,.13-.09,.26-.13,.4-.04,.14-.1,.26-.16,.37-.3,.63-.63,1.24-.97,1.85-.52,.89-1,1.78-1.44,2.67-.44,.9-.87,1.81-1.28,2.74-.04,.13-.09,.28-.13,.45,.17,.04,.29,.01,.36-.1,.06-.11,.13-.21,.19-.29,.52-.69,1.04-1.39,1.55-2.09,.52-.7,1.06-1.4,1.62-2.09,.28-.37,.57-.72,.86-1.07,.29-.34,.59-.68,.89-1,.24-.24,.48-.45,.73-.65s.5-.4,.76-.62c.41-.3,.76-.39,1.05-.26,.29,.13,.49,.38,.6,.75,.11,.48,.14,.97,.1,1.49-.09,.63-.24,1.28-.45,1.98-.13,.45-.28,.91-.44,1.36-.16,.45-.33,.91-.5,1.36-.3,.93-.59,1.81-.87,2.66-.28,.84-.51,1.72-.68,2.62,.24-.06,.53-.3,.87-.7,.34-.4,.71-.9,1.1-1.49,.39-.59,.78-1.24,1.18-1.94,.4-.7,.77-1.39,1.12-2.07,.34-.68,.65-1.32,.92-1.93,.27-.6,.47-1.1,.6-1.49,.15-.17,.32-.19,.52-.06,.17,.09,.21,.25,.1,.49-.41,1.08-.85,2.14-1.31,3.19-.46,1.05-.95,2.02-1.46,2.93-.51,.91-1.03,1.71-1.55,2.41-.53,.7-1.05,1.25-1.57,1.64-.52,.39-1.02,.58-1.51,.58s-.94-.25-1.38-.74c-.15-.37-.23-.74-.23-1.13s.03-.79,.1-1.2c.07-.5,.17-.99,.32-1.49,.15-.5,.32-.99,.52-1.49l1.46-4.08s.03-.1,.03-.18,.01-.2,.03-.37Z"/></g></g></g></g></svg>